<svg xmlns="http://www.w3.org/2000/svg" viewBox="0 0 100 100">
  <rect width="100" height="100" rx="20" fill="#4A90E2"/>
  <circle cx="65" cy="35" r="15" fill="#FFD700"/>
  <g fill="#FFD700">
    <path d="M65 12v8M65 50v8M88 35h-8M50 35h-8M81 19l-5.6 5.6M54.6 45.4L49 51M81 51l-5.6-5.6M54.6 24.6L49 19"/>
  </g>
  <path d="M25 45c0-5.5 4.5-10 10-10 .5 0 1 0 1.5.1C38.1 30.1 43.4 27 49.5 27c7.5 0 13.5 6 13.5 13.5v2c4.1.5 7 4 7 8 0 4.4-3.6 8-8 8h-30c-5.5 0-10-4.5-10-10 0-1.8.5-3.5 1.4-5C23.9 46.5 25 45 25 45z"
        fill="white"
        stroke="#E1E8ED"
        stroke-width="1"/>
  <g fill="#4FC3F7">
    <path d="M30 65l-2 5M40 65l-2 5M50 65l-2 5M60 65l-2 5"/>
  </g>
  <text x="50" y="85"
        font-family="Arial, sans-serif"
        font-size="14"
        font-weight="bold"
        fill="white"
        text-anchor="middle">
    WApp
  </text>
</svg>